<svg width="70" height="82" viewBox="0 0 70 82" fill="none" xmlns="http://www.w3.org/2000/svg">
<path d="M35 0.666748C19.1218 0.666748 6.25 13.5385 6.25 29.4167C6.25 36.8224 10.3302 43.9861 14.9432 49.7963C19.6206 55.6877 25.2097 60.6389 28.9564 63.6783C32.5033 66.556 37.4966 66.556 41.0436 63.6783C44.7903 60.6389 50.3793 55.6877 55.0568 49.7963C59.6698 43.9861 63.75 36.8224 63.75 29.4167C63.75 13.5385 50.878 0.666748 35 0.666748ZM44.5833 29.4167C44.5833 34.7094 40.2927 39.0001 35 39.0001C29.7073 39.0001 25.4167 34.7094 25.4167 29.4167C25.4167 24.124 29.7073 19.8334 35 19.8334C40.2927 19.8334 44.5833 24.124 44.5833 29.4167ZM56.7795 53.7458C55.3868 55.4021 53.9443 56.9727 52.5118 58.437C53.875 58.818 55.1449 59.2412 56.3083 59.6993C58.9725 60.7489 60.9333 61.9269 62.1802 63.0884C63.423 64.2456 63.75 65.1756 63.75 65.8338C63.75 66.492 63.423 67.4219 62.1802 68.5792C60.9333 69.7407 58.9725 70.9187 56.3083 71.9683C50.998 74.0601 43.4655 75.4171 35 75.4171C26.5346 75.4171 19.002 74.0601 13.6915 71.9683C11.0277 70.9187 9.06662 69.7407 7.81971 68.5792C6.57698 67.4219 6.25 66.492 6.25 65.8338C6.25 65.1756 6.57698 64.2456 7.81971 63.0884C9.06662 61.9269 11.0277 60.7489 13.6915 59.6993C14.8549 59.2412 16.1249 58.818 17.4881 58.437C16.0557 56.9727 14.6131 55.4021 13.2205 53.7458C12.6596 53.9393 12.1138 54.1406 11.584 54.3495C8.52485 55.5547 5.85448 57.0608 3.90078 58.8805C1.94287 60.704 0.5 63.0516 0.5 65.8338C0.5 68.616 1.94287 70.9636 3.90078 72.7871C5.85448 74.6068 8.52485 76.1129 11.584 77.3181C17.7195 79.735 25.9994 81.1671 35 81.1671C44.0007 81.1671 52.2807 79.735 58.4159 77.3181C61.4753 76.1129 64.1456 74.6068 66.0991 72.7871C68.0571 70.9636 69.5 68.616 69.5 65.8338C69.5 63.0516 68.0571 60.704 66.0991 58.8805C64.1456 57.0608 61.4753 55.5547 58.4159 54.3495C57.8861 54.1406 57.3403 53.9393 56.7795 53.7458Z" fill="#3D6B63"/>
</svg>
