<svg width="54" height="74" viewBox="0 0 54 74" fill="none" xmlns="http://www.w3.org/2000/svg">
<path d="M9.11407 1.62426L13.2666 0.351424C17.1578 -0.841272 21.315 1.08624 22.9817 4.85558L26.2977 12.3568C27.7429 15.6255 26.941 19.4695 24.3151 21.8602L17.0086 28.5128C17.4594 32.4919 18.8538 36.4102 21.1916 40.2678C23.5298 44.1251 26.4496 47.3249 29.9515 49.8671L38.7273 47.0599C42.0537 45.9958 45.6763 47.2187 47.7167 50.0943L52.4699 56.7932C54.842 60.1357 54.4154 64.7474 51.472 67.5816L48.3181 70.619C45.1787 73.6422 40.6948 74.7389 36.5469 73.4979C26.754 70.5675 17.7502 61.8681 9.53539 47.3996C1.30861 32.9097 -1.59485 20.616 0.825006 10.5187C1.84329 6.26991 4.99654 2.88633 9.11407 1.62426Z" fill="#3D6B63"/>
</svg>
