<svg width="78" height="62" viewBox="0 0 78 62" fill="none" xmlns="http://www.w3.org/2000/svg">
<path d="M69.6667 0.333252H8.33333C4.11666 0.333252 0.704997 3.78325 0.704997 7.99992L0.666664 53.9999C0.666664 58.2166 4.11666 61.6666 8.33333 61.6666H69.6667C73.8833 61.6666 77.3333 58.2166 77.3333 53.9999V7.99992C77.3333 3.78325 73.8833 0.333252 69.6667 0.333252ZM68.1333 16.6249L41.0317 33.5683C39.805 34.3349 38.195 34.3349 36.9683 33.5683L9.86666 16.6249C9.48229 16.4091 9.14569 16.1176 8.87724 15.768C8.60879 15.4184 8.41407 15.0179 8.30487 14.5908C8.19567 14.1638 8.17426 13.719 8.24193 13.2834C8.3096 12.8479 8.46495 12.4305 8.69858 12.0567C8.9322 11.6829 9.23924 11.3604 9.60112 11.1087C9.96299 10.857 10.3722 10.6814 10.8039 10.5924C11.2356 10.5034 11.6809 10.503 12.1128 10.5911C12.5447 10.6791 12.9543 10.854 13.3167 11.1049L39 27.1666L64.6833 11.1049C65.0457 10.854 65.4553 10.6791 65.8872 10.5911C66.3191 10.503 66.7644 10.5034 67.1961 10.5924C67.6278 10.6814 68.037 10.857 68.3989 11.1087C68.7608 11.3604 69.0678 11.6829 69.3014 12.0567C69.535 12.4305 69.6904 12.8479 69.7581 13.2834C69.8257 13.719 69.8043 14.1638 69.6951 14.5908C69.5859 15.0179 69.3912 15.4184 69.1228 15.768C68.8543 16.1176 68.5177 16.4091 68.1333 16.6249Z" fill="#3D6B63"/>
</svg>
